<?xml version="1.0" standalone="no"?>
<!DOCTYPE svg PUBLIC "-//W3C//DTD SVG 20010904//EN"
 "http://www.w3.org/TR/2001/REC-SVG-20010904/DTD/svg10.dtd">
<svg version="1.0" xmlns="http://www.w3.org/2000/svg"
 width="180.000000pt" height="164.000000pt" viewBox="0 0 180.000000 164.000000"
 preserveAspectRatio="xMidYMid meet">

<g transform="translate(0.000000,164.000000) scale(0.100000,-0.100000)"
fill="#000000" stroke="none">
<path d="M725 1625 c-419 -77 -725 -417 -725 -805 0 -450 406 -820 900 -820
494 0 900 370 900 820 0 513 -525 906 -1075 805z m-4 -395 c30 -77 56 -140 59
-140 3 0 28 62 56 138 l50 137 50 3 c42 3 47 1 31 -10 -16 -12 -17 -30 -15
-183 3 -142 5 -170 18 -172 9 -2 48 46 103 129 79 120 87 135 87 180 0 48 0
48 -32 48 -47 0 -81 -20 -100 -60 -18 -37 -22 -28 -12 33 l7 37 166 -2 166 -3
5 -26 c3 -15 20 -39 38 -54 45 -38 62 -75 62 -138 0 -44 -6 -62 -29 -94 -44
-60 -87 -74 -212 -66 -69 4 -95 9 -81 14 21 8 22 14 22 121 0 63 -4 108 -9
103 -4 -6 -55 -80 -112 -165 -125 -188 -224 -292 -325 -341 -61 -30 -78 -34
-149 -34 -98 1 -171 30 -239 98 -54 54 -80 103 -96 181 -29 141 42 290 171
361 67 36 96 43 190 44 l76 1 54 -140z m399 -334 c0 -2 -7 -7 -16 -10 -8 -3
-12 -2 -9 4 6 10 25 14 25 6z m141 -5 c-12 -8 -12 -12 -2 -25 8 -10 9 -16 3
-16 -6 0 -14 5 -17 10 -9 15 2 40 17 40 10 0 9 -3 -1 -9z m-224 -23 c-3 -8 -6
-5 -6 6 -1 11 2 17 5 13 3 -3 4 -12 1 -19z m153 6 c0 -8 -5 -12 -10 -9 -6 4
-8 11 -5 16 9 14 15 11 15 -7z m-70 -10 c0 -8 -19 -13 -24 -6 -3 5 1 9 9 9 8
0 15 -2 15 -3z m-603 -272 c17 -11 94 -194 91 -217 -4 -28 -54 -34 -62 -7 -6
17 -13 19 -49 15 -23 -3 -46 -12 -50 -19 -10 -17 -39 -18 -54 -3 -8 8 -13 8
-17 0 -10 -16 -53 -13 -60 4 -14 36 32 63 61 34 7 -7 23 19 52 88 47 108 59
123 88 105z m254 -8 c19 -23 -1 -48 -40 -52 -35 -4 -43 -22 -8 -22 33 0 49
-15 45 -41 -2 -20 -10 -25 -40 -27 -36 -3 -37 -5 -40 -45 -3 -36 -7 -43 -27
-45 -13 -2 -28 2 -32 10 -14 21 -11 212 3 226 18 18 123 15 139 -4z m176 -18
c29 -34 29 -65 1 -101 l-22 -28 30 -23 29 -24 5 95 c5 91 13 114 41 115 27 1
46 -121 32 -200 -7 -39 -12 -45 -36 -48 -17 -2 -27 1 -27 9 0 10 -3 10 -12 1
-22 -22 -65 -14 -97 18 l-30 30 -3 -27 c-2 -21 -9 -29 -27 -31 -13 -2 -28 2
-32 10 -5 7 -9 59 -9 115 0 119 5 126 84 120 39 -4 55 -10 73 -31z m323 19
c55 -28 27 -76 -32 -56 -28 10 -36 9 -58 -7 -31 -23 -38 -67 -15 -92 14 -15
30 -19 79 -17 l62 2 38 88 c40 91 56 108 80 88 22 -18 99 -208 93 -225 -9 -23
-54 -20 -62 3 -5 16 -13 18 -48 14 -23 -3 -47 -12 -53 -19 -13 -16 -50 -19
-59 -4 -5 8 -11 7 -21 -1 -8 -6 -36 -11 -63 -11 -81 0 -131 49 -131 130 0 90
107 150 190 107z"/>
<path d="M497 1348 c-104 -22 -199 -105 -238 -207 -28 -74 -23 -183 12 -256
32 -69 106 -139 174 -164 118 -44 242 -21 350 67 57 46 175 176 175 194 0 4
-28 8 -62 9 -48 0 -58 2 -40 9 21 9 22 13 22 166 0 87 -2 155 -4 153 -2 -2
-29 -70 -59 -151 -31 -81 -60 -156 -66 -165 -9 -16 -11 -16 -19 7 -6 14 -34
86 -62 160 -29 74 -54 137 -56 139 -2 2 -4 -64 -4 -148 0 -148 1 -152 23 -161
18 -7 14 -9 -23 -9 -35 0 -41 2 -27 10 15 9 17 29 17 179 0 109 -4 171 -11
175 -6 4 -10 1 -8 -6 4 -31 -2 -40 -23 -37 -12 2 -25 12 -28 24 -4 18 -10 19
-43 12z m280 -473 c-2 -5 -10 -10 -17 -10 -7 0 -15 5 -17 10 -2 6 6 11 17 11
11 0 19 -5 17 -11z m73 0 c0 -8 -2 -15 -4 -15 -2 0 -6 7 -10 15 -3 8 -1 15 4
15 6 0 10 -7 10 -15z"/>
<path d="M1220 1336 c0 -22 3 -23 53 -19 74 6 77 9 35 27 -56 24 -88 21 -88
-8z"/>
<path d="M1242 1300 c-22 -9 -23 -12 -20 -152 l3 -143 57 -3 c37 -2 68 2 87
12 63 33 95 118 72 188 -12 35 -71 102 -71 80 0 -7 -9 -3 -20 8 -21 21 -68 25
-108 10z"/>
<path d="M500 572 c0 -4 4 -12 8 -17 5 -6 24 -47 42 -92 19 -46 37 -83 41 -83
5 0 -8 37 -28 83 -19 45 -38 90 -40 100 -5 17 -23 24 -23 9z"/>
<path d="M486 464 c-9 -22 -8 -24 9 -24 8 0 15 6 15 14 0 22 -17 28 -24 10z"/>
<path d="M456 425 c4 -8 11 -15 16 -15 6 0 5 6 -2 15 -7 8 -14 15 -16 15 -2 0
-1 -7 2 -15z"/>
<path d="M343 383 c9 -9 19 -14 23 -11 10 10 -6 28 -24 28 -15 0 -15 -1 1 -17z"/>
<path d="M683 573 c15 -2 39 -2 55 0 15 2 2 4 -28 4 -30 0 -43 -2 -27 -4z"/>
<path d="M660 515 c0 -14 5 -25 10 -25 6 0 10 11 10 25 0 14 -4 25 -10 25 -5
0 -10 -11 -10 -25z"/>
<path d="M703 483 c9 -2 25 -2 35 0 9 3 1 5 -18 5 -19 0 -27 -2 -17 -5z"/>
<path d="M660 421 c0 -17 5 -31 10 -31 6 0 10 11 10 24 0 14 -4 28 -10 31 -6
4 -10 -7 -10 -24z"/>
<path d="M868 570 c48 -7 62 -21 62 -63 0 -16 4 -26 10 -22 15 9 12 48 -6 73
-12 18 -24 22 -62 21 l-47 -2 43 -7z"/>
<path d="M1030 485 c0 -57 4 -95 10 -95 6 0 10 38 10 95 0 57 -4 95 -10 95 -6
0 -10 -38 -10 -95z"/>
<path d="M832 515 c0 -16 2 -22 5 -12 2 9 2 23 0 30 -3 6 -5 -1 -5 -18z"/>
<path d="M860 515 c0 -8 7 -15 15 -15 8 0 15 7 15 15 0 8 -7 15 -15 15 -8 0
-15 -7 -15 -15z"/>
<path d="M906 425 c4 -9 16 -21 28 -27 19 -10 19 -9 -3 16 -28 30 -33 32 -25
11z"/>
<path d="M832 400 c0 -14 2 -19 5 -12 2 6 2 18 0 25 -3 6 -5 1 -5 -13z"/>
<path d="M1142 564 c-12 -8 -22 -20 -22 -25 0 -5 13 0 29 12 29 21 81 23 124
5 10 -5 17 -4 17 2 0 25 -114 30 -148 6z"/>
<path d="M1400 570 c0 -5 4 -10 8 -10 8 0 43 -76 72 -154 6 -16 13 -26 17 -23
9 10 -71 197 -84 197 -7 0 -13 -4 -13 -10z"/>
<path d="M1101 484 c0 -11 3 -14 6 -6 3 7 2 16 -1 19 -3 4 -6 -2 -5 -13z"/>
<path d="M1396 465 c-9 -23 -8 -25 9 -25 17 0 19 9 6 28 -7 11 -10 10 -15 -3z"/>
<path d="M1110 455 c0 -2 14 -20 31 -40 34 -39 74 -46 119 -20 30 17 12 20
-24 4 -33 -15 -79 3 -94 37 -10 20 -32 34 -32 19z"/>
<path d="M1360 438 c0 -9 5 -20 11 -23 17 -11 18 -2 3 19 -12 17 -14 17 -14 4z"/>
</g>
</svg>
